<svg width="62" height="89" viewBox="0 0 62 89" fill="none" xmlns="http://www.w3.org/2000/svg">
<path d="M1.63965 1.40283C16.709 28.8505 27.432 45.143 32.5896 48.6738C38.2394 52.5416 44.018 51.96 48.2257 51.4219C51.4853 51.0049 53.2732 46.2764 54.9041 41.396C56.4609 36.7375 54.9204 33.2131 53.7013 31.5863C52.3792 29.8219 50.5741 28.5896 48.9473 27.6396C47.4244 26.7503 44.6051 26.9505 41.3474 27.8964C38.6599 28.6768 38.3344 35.0641 38.4689 42.7986C38.571 48.6624 42.379 60.832 47.6753 76.0481C49.7424 81.5768 50.5497 82.6532 51.2346 83.6113C51.9196 84.5694 52.4578 85.3767 53.0123 86.2085" stroke="black" stroke-width="2" stroke-linecap="round"/>
<path d="M35.0728 78.0538C35.0728 77.5156 42.3383 81.2748 53.6158 86.7179C57.4446 88.5658 58.166 86.779 58.7123 85.0095C59.2587 83.24 59.7969 81.0873 60.0741 78.4982C60.3514 75.9092 60.3514 72.9492 59.5359 68.2686" stroke="black" stroke-width="2" stroke-linecap="round"/>
</svg>
