<svg id="Layer_2" data-name="Layer 2" xmlns="http://www.w3.org/2000/svg" viewBox="0 0 513 513"><defs><style>.cls-1{fill:#fff;}.cls-1,.cls-2{stroke:#fff;stroke-miterlimit:10;}.cls-2{fill:#ef8122;}.cls-3{fill:#f58220;}</style></defs><rect class="cls-1" x="0.5" y="0.5" width="512" height="512"/><path class="cls-2" d="M152.84,55.5h70.32a2.34,2.34,0,0,1,2.34,2.34V181a2.34,2.34,0,0,0,4.27,1.33l45.53-65.85a2.34,2.34,0,0,1,1.94-1l74.58.31a2.34,2.34,0,0,1,1.85,3.77l-61.33,79.94a2.35,2.35,0,0,0-.13,2.66l68.27,110.74a2.34,2.34,0,0,1-2,3.57H278.64a2.33,2.33,0,0,1-2-1.13l-39.48-65.26a2.34,2.34,0,0,0-3.86-.21L226,259.44a2.32,2.32,0,0,0-.48,1.45l.64,53.24a2.34,2.34,0,0,1-2.34,2.37h-71a2.34,2.34,0,0,1-2.34-2.34V57.84A2.34,2.34,0,0,1,152.84,55.5Z"/><path class="cls-3" d="M166.06,395.34v29.24a33.48,33.48,0,0,1-4.35,3.86,27.57,27.57,0,0,1-7.6,3.88A35.64,35.64,0,0,1,142.39,434a30.13,30.13,0,0,1-10.94-1.9,21.87,21.87,0,0,1-8.44-5.75,26.29,26.29,0,0,1-5.4-9.64A44.08,44.08,0,0,1,115.72,403V390.39a47.27,47.27,0,0,1,1.75-13.62,26,26,0,0,1,5.1-9.69,20.76,20.76,0,0,1,8.12-5.77,29.08,29.08,0,0,1,10.82-1.89c5.35,0,9.78.91,13.26,2.72a18.31,18.31,0,0,1,8,8,33,33,0,0,1,3.31,12.95H152.93a22.62,22.62,0,0,0-1.67-7.32,8.3,8.3,0,0,0-3.56-4,12.41,12.41,0,0,0-5.94-1.25,12.83,12.83,0,0,0-5.58,1.12,9.27,9.27,0,0,0-3.89,3.51,17.39,17.39,0,0,0-2.28,6.12,47.44,47.44,0,0,0-.74,9V403a39.79,39.79,0,0,0,.88,9.07,17.07,17.07,0,0,0,2.6,6.18,10.13,10.13,0,0,0,4.29,3.49,15.29,15.29,0,0,0,6,1.09,16,16,0,0,0,4.85-.59,11.07,11.07,0,0,0,2.9-1.37c.73-.51,1.31-.9,1.75-1.17V405.6H141.34V395.33Z"/><path class="cls-3" d="M203.05,400.14l0,8h-5.46a11.38,11.38,0,0,0-4,.64,8.3,8.3,0,0,0-3,1.84,7.57,7.57,0,0,0-1.82,2.84,10.17,10.17,0,0,0-.61,3.59,9.27,9.27,0,0,0,.65,3.71,4.6,4.6,0,0,0,1.92,2.19,6.14,6.14,0,0,0,3.09.72,8.79,8.79,0,0,0,4.47-1.09,8.27,8.27,0,0,0,2.88-2.62,3.92,3.92,0,0,0,.74-2.86l2.92,5.18a19.86,19.86,0,0,1-1.56,3.89,17.69,17.69,0,0,1-2.71,3.83,12.39,12.39,0,0,1-9.53,4,16.8,16.8,0,0,1-8.11-1.95,14.24,14.24,0,0,1-5.68-5.5,16.72,16.72,0,0,1-2.07-8.54,19.05,19.05,0,0,1,1.37-7.37,15.16,15.16,0,0,1,4-5.63,18.26,18.26,0,0,1,6.75-3.61,32.43,32.43,0,0,1,9.6-1.26Zm-1.67,21.22v-25.9a10.67,10.67,0,0,0-.68-4.19,4.59,4.59,0,0,0-2-2.26,6.51,6.51,0,0,0-3.23-.73,6.83,6.83,0,0,0-3.49.82,5.08,5.08,0,0,0-2.1,2.34,8.73,8.73,0,0,0-.68,3.56h-13a15.54,15.54,0,0,1,1.37-6.43,16.47,16.47,0,0,1,3.94-5.4,18.61,18.61,0,0,1,6.22-3.71,23.52,23.52,0,0,1,8.14-1.34,24.16,24.16,0,0,1,9.52,1.77,14,14,0,0,1,6.57,5.64q2.4,3.86,2.4,10.08v24.6a43.91,43.91,0,0,0,.47,7,19,19,0,0,0,1.44,4.93V433H203.14a22.37,22.37,0,0,1-1.31-5.3A45.84,45.84,0,0,1,201.38,421.36Z"/><path class="cls-3" d="M238.48,390.19V433h-13l0-53.89h12.13Zm-2,14-4,.05a44.33,44.33,0,0,1,1.07-10.41,25.77,25.77,0,0,1,3.39-8.29,15.67,15.67,0,0,1,13.85-7.39,14.42,14.42,0,0,1,5.56,1.07,11.5,11.5,0,0,1,4.47,3.34,15.74,15.74,0,0,1,2.93,5.88,31.57,31.57,0,0,1,1,8.64v36H251.86V398.52a16.86,16.86,0,0,0-.78-5.81,5.56,5.56,0,0,0-2.27-2.94,7.16,7.16,0,0,0-3.66-.87,6.81,6.81,0,0,0-4,1.17,8.23,8.23,0,0,0-2.71,3.29,19.57,19.57,0,0,0-1.52,4.88A30.41,30.41,0,0,0,236.51,404.19ZM263.8,402l-5.31.94a38.28,38.28,0,0,1,1-9.63,24.85,24.85,0,0,1,3.32-7.9,16.23,16.23,0,0,1,5.61-5.3,15.69,15.69,0,0,1,7.88-1.91,16.55,16.55,0,0,1,6.15,1.1,11.53,11.53,0,0,1,4.72,3.51,16.63,16.63,0,0,1,3,6.28,36.65,36.65,0,0,1,1,9.38l0,34.62h-13l0-34.61a16.81,16.81,0,0,0-.81-5.9,5.14,5.14,0,0,0-2.27-2.84,7.59,7.59,0,0,0-3.59-.78,5.66,5.66,0,0,0-3.36,1,8.24,8.24,0,0,0-2.43,2.82,14.48,14.48,0,0,0-1.47,4.13A25.26,25.26,0,0,0,263.8,402Z"/><path class="cls-3" d="M302.33,365.12a6.86,6.86,0,0,1,1.92-5,7,7,0,0,1,5.25-2,6.85,6.85,0,0,1,5.21,2,7.57,7.57,0,0,1,0,10,6.87,6.87,0,0,1-5.21,2,7.07,7.07,0,0,1-5.26-2A6.79,6.79,0,0,1,302.33,365.12ZM316,379.17l0,53.89H303l0-53.88Z"/><path class="cls-3" d="M352.81,379.19v9.71H324.35v-9.72ZM344,433.07H331.1l0-58.82A22.72,22.72,0,0,1,333.23,364a14.59,14.59,0,0,1,6-6.32,18.55,18.55,0,0,1,9.18-2.16,19.7,19.7,0,0,1,3.21.25,23,23,0,0,1,3,.7l-.2,10.31a6.17,6.17,0,0,0-1.65-.35,18.67,18.67,0,0,0-2-.1,6.72,6.72,0,0,0-3.62.92,5.81,5.81,0,0,0-2.27,2.69,10.58,10.58,0,0,0-.79,4.3Z"/><path class="cls-3" d="M370.54,379.2l9,39.39,2,14.35-8.85,1.49-16.1-55.24Zm4,47.86,11.6-47.86H399.7l-18,62a33.5,33.5,0,0,1-1.67,4.38,20.27,20.27,0,0,1-2.78,4.46,13.32,13.32,0,0,1-4.3,3.45,13.09,13.09,0,0,1-6.16,1.35,14.66,14.66,0,0,1-2.83-.25c-.81-.17-1.7-.39-2.68-.65l-.05-10.11c.31,0,.61.06.91.07l.86,0a10.17,10.17,0,0,0,4-.67,5.77,5.77,0,0,0,2.5-2.09,14.16,14.16,0,0,0,1.67-3.71Z"/></svg>