<svg width="136" height="120" viewBox="0 0 136 120" fill="none" xmlns="http://www.w3.org/2000/svg">
<path d="M134.531 72.3654C134.262 72.3654 133.993 72.3654 116.632 69.1362C99.2718 65.9071 64.8276 59.4488 44.5273 53.8345C24.2269 48.2202 19.1141 43.6456 15.5384 40.2126C9.90422 34.8033 7.33103 30.7943 5.83878 26.4643C3.68927 20.2272 4.33022 15.0237 5.27613 12.7201C8.4092 5.08998 19.7991 2.24577 24.549 1.69535C32.1247 0.817485 34.2161 16.3121 36.4014 28.8291C37.3829 34.4507 34.5259 45.3743 27.6314 65.006C23.4916 76.7939 15.624 91.3651 11.7466 99.6622C7.60013 109.305 6.78469 111.498 5.8347 113.125C5.42291 113.945 5.15381 114.752 4.87656 117.215" stroke="black" stroke-width="2" stroke-linecap="round"/>
<path d="M1.61475 97.644C1.61475 104.371 1.61475 111.099 2.42203 114.699C3.22932 118.299 4.84388 118.568 8.09749 117.63C11.3511 116.693 16.1948 114.54 22.8162 111.507" stroke="black" stroke-width="2" stroke-linecap="round"/>
</svg>
